<svg width="64" height="64" viewBox="0 0 64 64" fill="none" xmlns="http://www.w3.org/2000/svg">
<path d="M56.92 49C56.7689 49.919 56.4611 50.8052 56.01 51.62C55.4305 52.6581 55.0921 53.8133 55.02 55H44C43.2606 54.9983 42.5473 55.273 42 55.77V55.71C42.0003 54.5948 41.6899 53.5016 41.1034 52.553C40.517 51.6045 39.6778 50.8381 38.68 50.34L34 48V45.65C35.1702 45.2392 36.1838 44.4748 36.9005 43.4625C37.6171 42.4503 38.0014 41.2403 38 40H39C39.5137 39.9957 40.0065 39.7958 40.3781 39.4409C40.7497 39.0861 40.972 38.603 41 38.09C41.5258 38.3547 42.1106 38.4805 42.6987 38.4553C43.2868 38.43 43.8587 38.2547 44.3599 37.946C44.8611 37.6372 45.275 37.2054 45.562 36.6914C45.8491 36.1775 45.9999 35.5987 46 35.01C45.9987 35.7018 46.2065 36.3778 46.596 36.9494C46.9856 37.5211 47.5387 37.9618 48.183 38.2136C48.8273 38.4655 49.5326 38.5169 50.2066 38.361C50.8806 38.2051 51.4918 37.8492 51.96 37.34C52.7408 36.4699 53.3211 35.4389 53.66 34.32L54.37 34.68C55.5331 35.2603 56.591 36.0309 57.5 36.96H57.51C59.7457 39.2079 61.0005 42.2496 61 45.42V49H56.92Z" fill="#51c4db" id="id_121"></path>
<path d="M59.44 32.25C59.7347 32.6597 59.9213 33.1372 59.9825 33.6381C60.0437 34.1391 59.9775 34.6474 59.7901 35.116C59.6026 35.5846 59.3 35.9984 58.9102 36.3189C58.5204 36.6395 58.056 36.8566 57.56 36.95C57.54 36.95 57.53 36.96 57.51 36.96H57.5C56.591 36.0309 55.5331 35.2603 54.37 34.68L53.66 34.32L49 32V28.42C49.9943 28.0149 50.8983 27.4167 51.66 26.66C53.1586 25.1576 54.0001 23.1221 54 21V14L50 11C46 14 44 14 38 14V21C38.0003 22.594 38.4763 24.1516 39.3671 25.4734C40.2578 26.7953 41.5228 27.8213 43 28.42V32L38.34 34.32L38 34.49V34C38 32.9391 37.5786 31.9217 36.8284 31.1716C36.0783 30.4214 35.0609 30 34 30H32.73C32.6992 29.9397 32.6624 29.8828 32.62 29.83C32.1856 29.2617 31.9673 28.5576 32.0039 27.8433C32.0405 27.1289 32.3298 26.4509 32.82 25.93C33.2267 25.5184 33.5434 25.0267 33.75 24.4861C33.9566 23.9456 34.0485 23.368 34.02 22.79C34.01 22.53 34 22.26 34 22V15.35C33.994 12.1295 35.2482 9.03447 37.4944 6.7266C39.7406 4.41874 42.8005 3.08122 46.02 3C47.5948 3.00052 49.154 3.31142 50.6085 3.9149C52.0631 4.51839 53.3844 5.40264 54.497 6.5171C55.6096 7.63156 56.4917 8.95438 57.0927 10.4099C57.6938 11.8655 58.0021 13.4252 58 15V22C58 22.26 57.99 22.53 57.98 22.79C57.9515 23.368 58.0434 23.9456 58.25 24.4861C58.4566 25.0267 58.7733 25.5184 59.18 25.93C59.6702 26.4509 59.9595 27.1289 59.9961 27.8433C60.0327 28.5576 59.8144 29.2617 59.38 29.83C59.1283 30.1862 58.9983 30.614 59.0091 31.0499C59.0199 31.4859 59.171 31.9067 59.44 32.25V32.25Z" fill="#f7ed91" id="id_122"></path>
<path d="M44 61H42V60.23C42.5473 60.727 43.2606 61.0017 44 61V61Z" fill="#a3993b" id="id_123"></path>
<path d="M26 61H22V60.23C22.0424 60.1961 22.0825 60.1593 22.12 60.12C22.399 59.8419 22.6203 59.5115 22.7713 59.1477C22.9223 58.7839 23 58.3939 23 58C23.003 57.5783 22.9152 57.1609 22.7427 56.7762C22.5702 56.3914 22.3169 56.0482 22 55.77V55.71C21.9997 54.5948 22.3101 53.5016 22.8966 52.553C23.483 51.6045 24.3222 50.8381 25.32 50.34L30 48C30 48.5304 30.2107 49.0391 30.5858 49.4142C30.9609 49.7893 31.4696 50 32 50C32.5304 50 33.0391 49.7893 33.4142 49.4142C33.7893 49.0391 34 48.5304 34 48L38.68 50.34C39.6778 50.8381 40.517 51.6045 41.1034 52.553C41.6899 53.5016 42.0003 54.5948 42 55.71V55.77C41.6831 56.0482 41.4298 56.3914 41.2573 56.7762C41.0848 57.1609 40.997 57.5783 41 58C41 58.3939 41.0777 58.7839 41.2287 59.1477C41.3797 59.5115 41.601 59.8419 41.88 60.12C41.9175 60.1593 41.9576 60.1961 42 60.23V61H26Z" fill="#c5b4fa" id="id_124"></path>
<path d="M39.07 36H38V34.49L38.34 34.32C38.515 34.9073 38.7601 35.4714 39.07 36Z" fill="#3555b3" id="id_125"></path>
<path d="M38 36V37L35 35H29L26 37V34C26 32.9391 26.4214 31.9217 27.1716 31.1716C27.9217 30.4214 28.9391 30 30 30H34C35.0609 30 36.0783 30.4214 36.8284 31.1716C37.5786 31.9217 38 32.9391 38 34V36Z" fill="#edeb93" id="id_126"></path>
<path d="M9 48H3V45.42C3.0007 43.1911 3.6211 41.0063 4.7919 39.1098C5.96271 37.2132 7.63779 35.6795 9.63 34.68L12.14 33.43L14 39L18 36L22 39L23.86 33.43L26 34.5V36H25C24.4701 36.0016 23.9623 36.2128 23.5875 36.5875C23.2128 36.9623 23.0016 37.47 23 38C23.0039 38.5292 23.2159 39.0356 23.5901 39.4099C23.9643 39.7841 24.4708 39.9961 25 40H26C25.9986 41.2402 26.3829 42.4503 27.0995 43.4625C27.8161 44.4748 28.8297 45.2392 30 45.65V48L25.32 50.34C24.3222 50.8381 23.483 51.6045 22.8966 52.553C22.3101 53.5016 21.9997 54.5948 22 55.71V55.77C21.4527 55.2729 20.7394 54.9983 20 55H9V48Z" fill="#cc33a3" id="id_127"></path>
<path d="M27 6V13C26.9984 12.4701 26.7872 11.9623 26.4125 11.5875C26.0377 11.2128 25.5299 11.0016 25 11H19C21.21 11 23 10.21 23 8V6H27Z" fill="#effa87" id="id_128"></path>
<path d="M23 6V8C23 10.21 21.21 11 19 11H11C10.4701 11.0016 9.96227 11.2128 9.58753 11.5875C9.2128 11.9623 9.00158 12.4701 9 13V7C9 5.93913 9.42143 4.92172 10.1716 4.17157C10.9217 3.42143 11.9391 3 13 3H23V6Z" fill="#e5f07d" id="id_129"></path>
<path d="M22 60.23V61H20C20.7394 61.0017 21.4527 60.727 22 60.23V60.23Z" fill="#3d4a73" id="id_130"></path>
<path d="M59.18 37.34C59.6338 37.0491 60.0232 36.6684 60.3242 36.2212C60.6252 35.774 60.8313 35.2699 60.93 34.74C61.0306 34.2073 61.0222 33.6597 60.9054 33.1304C60.7885 32.601 60.5656 32.1008 60.25 31.66C60.1114 31.4903 60.0291 31.2815 60.0148 31.0628C60.0005 30.8441 60.0547 30.6264 60.17 30.44C60.7518 29.6832 61.0443 28.7435 60.9948 27.7902C60.9453 26.8368 60.557 25.9325 59.9 25.24C59.5889 24.9233 59.3466 24.5458 59.1883 24.1311C59.03 23.7164 58.9591 23.2734 58.98 22.83C58.99 22.55 59 22.27 59 22V15C59.0034 13.2935 58.6702 11.6032 58.0193 10.0257C57.3685 8.44822 56.4128 7.01464 55.2071 5.80706C54.0014 4.59948 52.5693 3.64162 50.9928 2.98835C49.4163 2.33507 47.7265 1.99921 46.02 2H46C44.3224 2.0079 42.663 2.34874 41.118 3.00275C39.5731 3.65677 38.1734 4.61096 37 5.81C34.4604 8.33786 33.0227 11.7669 33 15.35V22C33 22.27 33.01 22.55 33.02 22.86C33.0381 23.2986 32.9657 23.7362 32.8075 24.1457C32.6492 24.5551 32.4084 24.9276 32.1 25.24C31.3861 25.9805 30.9912 26.9715 31 28C31.0066 28.3377 31.0536 28.6735 31.14 29H30C28.8594 29.0026 27.7539 29.3945 26.8665 30.111C25.979 30.8275 25.3629 31.8256 25.12 32.94L24.98 32.87C24.9635 32.7291 24.9165 32.5934 24.8422 32.4726C24.768 32.3517 24.6682 32.2484 24.55 32.17L22 30.46V29.16C23.7815 28.3807 25.2976 27.0995 26.3631 25.4728C27.4286 23.8462 27.9973 21.9445 28 20H28.5C29.4283 20 30.3185 19.6313 30.9749 18.9749C31.6312 18.3185 32 17.4283 32 16.5C32 15.5717 31.6312 14.6815 30.9749 14.0251C30.3185 13.3688 29.4283 13 28.5 13H28V6C28 5.73478 27.8946 5.48043 27.7071 5.29289C27.5196 5.10536 27.2652 5 27 5H24V3C24 2.73478 23.8946 2.48043 23.7071 2.29289C23.5196 2.10536 23.2652 2 23 2H13C11.6739 2 10.4021 2.52679 9.46446 3.46447C8.52678 4.40215 8 5.67392 8 7V13H7.5C6.57174 13 5.6815 13.3688 5.02512 14.0251C4.36875 14.6815 4 15.5717 4 16.5C4 17.4283 4.36875 18.3185 5.02512 18.9749C5.6815 19.6313 6.57174 20 7.5 20H8C8.00265 21.9445 8.57144 23.8462 9.63693 25.4728C10.7024 27.0995 12.2185 28.3807 14 29.16V30.46L11.45 32.17C11.3318 32.2484 11.232 32.3517 11.1578 32.4726C11.0835 32.5934 11.0365 32.7291 11.02 32.87L9.18 33.79C7.01715 34.8654 5.19842 36.5246 3.92953 38.5799C2.66065 40.6352 1.99227 43.0046 2 45.42V57C2 58.3261 2.52678 59.5979 3.46446 60.5355C4.40215 61.4732 5.67392 62 7 62H57C58.3261 62 59.5978 61.4732 60.5355 60.5355C61.4732 59.5979 62 58.3261 62 57V45.42C62.0042 42.4847 61.0098 39.6352 59.18 37.34V37.34ZM28 15H28.5C28.8978 15 29.2794 15.158 29.5607 15.4393C29.842 15.7206 30 16.1022 30 16.5C30 16.8978 29.842 17.2794 29.5607 17.5607C29.2794 17.842 28.8978 18 28.5 18H28V15ZM8 18H7.5C7.10217 18 6.72064 17.842 6.43934 17.5607C6.15803 17.2794 6 16.8978 6 16.5C6 16.1022 6.15803 15.7206 6.43934 15.4393C6.72064 15.158 7.10217 15 7.5 15H8V18ZM33.54 26.62C34.0411 26.1125 34.4314 25.5065 34.6862 24.8403C34.9409 24.1742 35.0546 23.4624 35.02 22.75C35.01 22.5 35 22.25 35 22V15.35C35.0215 12.2967 36.2469 9.37512 38.41 7.22C39.3997 6.20849 40.58 5.40313 41.8828 4.85045C43.1855 4.29776 44.5849 4.00871 46 4H46.02C48.9344 4.00371 51.7281 5.16447 53.787 7.22714C55.8459 9.28981 57.0016 12.0856 57 15V22C57 22.25 56.99 22.5 56.98 22.72C56.9426 23.4372 57.0548 24.1543 57.3096 24.8257C57.5644 25.4972 57.9562 26.1082 58.46 26.62C58.8121 26.9926 59.0057 27.4874 59 28C59.0004 28.4406 58.8564 28.8691 58.59 29.22C58.2017 29.7436 57.9954 30.3799 58.0026 31.0317C58.0099 31.6836 58.2302 32.3151 58.63 32.83C58.7894 33.0533 58.9009 33.3072 58.9577 33.5756C59.0145 33.844 59.0153 34.1213 58.96 34.39C58.8956 34.7109 58.7521 35.0107 58.5426 35.2621C58.333 35.5136 58.064 35.7088 57.76 35.83C56.8806 35.0154 55.8909 34.3287 54.82 33.79L50 31.38V29.05C51.499 28.3052 52.7609 27.1575 53.6441 25.7356C54.5273 24.3137 54.9968 22.6739 55 21V14C54.9989 13.8449 54.9623 13.6922 54.893 13.5535C54.8236 13.4148 54.7234 13.2939 54.6 13.2L50.6 10.2C50.4276 10.0686 50.2168 9.99747 50 9.99747C49.7832 9.99747 49.5724 10.0686 49.4 10.2C45.67 13 43.89 13 38 13C37.7348 13 37.4804 13.1054 37.2929 13.2929C37.1054 13.4804 37 13.7348 37 14V21C37.0032 22.6739 37.4727 24.3137 38.3559 25.7356C39.2391 27.1575 40.5009 28.3052 42 29.05V31.38L38.88 32.93C38.635 31.8175 38.0179 30.8218 37.1307 30.1073C36.2435 29.3928 35.1391 29.0022 34 29H33.29C33.1085 28.6973 33.0086 28.3528 33 28C32.9943 27.4874 33.1879 26.9926 33.54 26.62ZM39.73 35.1C39.6774 35.0098 39.6306 34.9162 39.59 34.82L42.29 33.47C42.5122 34.0281 42.858 34.5286 43.3014 34.9339C43.7448 35.3391 44.2742 35.6387 44.85 35.81C44.6761 36.3486 44.314 36.8066 43.83 37.1C43.5475 37.2699 43.2338 37.3814 42.9074 37.4277C42.581 37.4741 42.2486 37.4545 41.93 37.37C41.8098 36.8249 41.5403 36.3239 41.1519 35.9231C40.7634 35.5222 40.2711 35.2372 39.73 35.1V35.1ZM40 38C40 38.2652 39.8946 38.5196 39.7071 38.7071C39.5196 38.8946 39.2652 39 39 39V37C39.2652 37 39.5196 37.1054 39.7071 37.2929C39.8946 37.4804 40 37.7348 40 38ZM39 21V15C44.05 14.99 46.34 14.83 49.99 12.24L53 14.5V21C53 22.8565 52.2625 24.637 50.9497 25.9497C49.637 27.2625 47.8565 28 46 28C44.1435 28 42.363 27.2625 41.0502 25.9497C39.7375 24.637 39 22.8565 39 21V21ZM44 32V29.77C45.3157 30.0767 46.6843 30.0767 48 29.77V32C48 32.5304 47.7893 33.0391 47.4142 33.4142C47.0391 33.7893 46.5304 34 46 34C45.4696 34 44.9609 33.7893 44.5858 33.4142C44.2107 33.0391 44 32.5304 44 32ZM49.71 33.47L52.41 34.82C52.1101 35.4938 51.7088 36.1177 51.22 36.67C50.8985 37.0342 50.4717 37.2895 49.9988 37.4005C49.5258 37.5116 49.03 37.473 48.58 37.29C48.2458 37.1654 47.9429 36.9693 47.6924 36.7154C47.442 36.4614 47.25 36.1559 47.13 35.82C47.7096 35.6487 48.2429 35.3482 48.6898 34.9412C49.1366 34.5342 49.4855 34.0312 49.71 33.47ZM27 34C27.0024 33.2051 27.3192 32.4434 27.8813 31.8813C28.4434 31.3192 29.2051 31.0024 30 31H34C34.7949 31.0024 35.5566 31.3192 36.1187 31.8813C36.6808 32.4434 36.9976 33.2051 37 34V35.13L35.55 34.17C35.3882 34.0588 35.1963 33.9995 35 34H29C28.8037 33.9995 28.6118 34.0588 28.45 34.17L27 35.13V34ZM27 37.54L29.3 36H34.7L37 37.54V40C37 41.3261 36.4732 42.5979 35.5355 43.5355C34.5978 44.4732 33.3261 45 32 45C30.6739 45 29.4021 44.4732 28.4645 43.5355C27.5268 42.5979 27 41.3261 27 40V37.54ZM33 46.92V48C33 48.2652 32.8946 48.5196 32.7071 48.7071C32.5196 48.8946 32.2652 49 32 49C31.7348 49 31.4804 48.8946 31.2929 48.7071C31.1054 48.5196 31 48.2652 31 48V46.92C31.6624 47.0267 32.3376 47.0267 33 46.92V46.92ZM24.44 34.84L24.8 35.02C24.6524 35.0268 24.5054 35.0435 24.36 35.07L24.44 34.84ZM25 37V39C24.7348 39 24.4804 38.8946 24.2929 38.7071C24.1054 38.5196 24 38.2652 24 38C24 37.7348 24.1054 37.4804 24.2929 37.2929C24.4804 37.1054 24.7348 37 25 37ZM22.81 33.41L21.49 37.37L19.32 35.74L21.32 32.41L22.81 33.41ZM18 34.06L16 30.72V29.8C17.32 30.0667 18.68 30.0667 20 29.8V30.72L18 34.06ZM24 8V7H26V10.18C25.6793 10.0636 25.3411 10.0027 25 10H23.47C23.8227 9.39287 24.0057 8.70211 24 8V8ZM10 7C10.0024 6.20508 10.3192 5.4434 10.8813 4.8813C11.4434 4.31921 12.2051 4.00238 13 4H22V8C22 8.49 22 10 19 10H11C10.6589 10.0027 10.3207 10.0636 10 10.18V7ZM10 20V13C10 12.7348 10.1054 12.4804 10.2929 12.2929C10.4804 12.1054 10.7348 12 11 12H25C25.2652 12 25.5196 12.1054 25.7071 12.2929C25.8946 12.4804 26 12.7348 26 13V20C26 22.1217 25.1571 24.1566 23.6569 25.6569C22.1566 27.1571 20.1217 28 18 28C15.8783 28 13.8434 27.1571 12.3431 25.6569C10.8429 24.1566 10 22.1217 10 20ZM14.68 32.41L16.68 35.74L14.51 37.37L13.19 33.41L14.68 32.41ZM17 60H7C6.20508 59.9976 5.4434 59.6808 4.8813 59.1187C4.3192 58.5566 4.00237 57.7949 4 57V49H8V54.59L6.29 56.29L7.71 57.71L9.41 56H17V60ZM20 60H19V56H20C20.5304 56 21.0391 56.2107 21.4142 56.5858C21.7893 56.9609 22 57.4696 22 58C22 58.5304 21.7893 59.0391 21.4142 59.4142C21.0391 59.7893 20.5304 60 20 60ZM21.19 54.2C20.8061 54.0721 20.4046 54.0046 20 54H10V43H8V47H4V45.42C3.99404 43.3758 4.56035 41.3708 5.63486 39.6318C6.70936 37.8928 8.24916 36.4892 10.08 35.58L11.56 34.84L13.05 39.32C13.0993 39.4697 13.1842 39.6053 13.2975 39.715C13.4107 39.8247 13.5488 39.9054 13.7 39.95C13.797 39.9812 13.8981 39.998 14 40C14.216 39.998 14.426 39.928 14.6 39.8L18 37.25L21.4 39.8C21.574 39.928 21.784 39.998 22 40C22.1019 39.998 22.203 39.9812 22.3 39.95C22.4091 39.9111 22.5106 39.8536 22.6 39.78C22.8766 40.1571 23.2378 40.4639 23.6547 40.6758C24.0716 40.8877 24.5324 40.9988 25 41H25.08C25.2463 42.1392 25.6911 43.2198 26.3749 44.146C27.0587 45.0722 27.9603 45.8155 29 46.31V47.38L24.87 49.45C23.9384 49.9134 23.1236 50.5813 22.4863 51.4038C21.8491 52.2263 21.4059 53.1822 21.19 54.2V54.2ZM40.56 60H39V54H37V60H27V54H25V60H23.44C23.8037 59.3961 23.9972 58.705 24 58C23.9944 57.0471 23.6466 56.1279 23.02 55.41C23.0681 54.5324 23.3479 53.6832 23.831 52.949C24.3141 52.2147 24.9831 51.6216 25.77 51.23L29.38 49.43C29.6336 49.9044 30.0113 50.301 30.4728 50.5775C30.9342 50.8541 31.4621 51.0001 32 51.0001C32.5379 51.0001 33.0658 50.8541 33.5272 50.5775C33.9887 50.301 34.3663 49.9044 34.62 49.43L38.23 51.23C39.0134 51.6261 39.6794 52.2203 40.1619 52.9536C40.6443 53.687 40.9264 54.5338 40.98 55.41C40.3534 56.1279 40.0056 57.0471 40 58C40.0028 58.705 40.1963 59.3961 40.56 60V60ZM45 60H44C43.4696 60 42.9609 59.7893 42.5858 59.4142C42.2107 59.0391 42 58.5304 42 58C42 57.4696 42.2107 56.9609 42.5858 56.5858C42.9609 56.2107 43.4696 56 44 56H45V60ZM60 57C59.9976 57.7949 59.6808 58.5566 59.1187 59.1187C58.5566 59.6808 57.7949 59.9976 57 60H47V56H54.59L56.29 57.71L57.71 56.29L56.07 54.65C56.1732 53.7557 56.4482 52.8899 56.88 52.1C57.2475 51.4371 57.5329 50.7319 57.73 50H60V57ZM60 48H58C57.9555 45.8817 57.1415 43.8521 55.71 42.29L54.29 43.71C55.3573 44.8878 55.9644 46.4109 56 48C56.0003 48.2815 55.9769 48.5625 55.93 48.84C55.7985 49.6426 55.5313 50.417 55.14 51.13C54.6418 52.0219 54.3001 52.9926 54.13 54H44C43.5987 54.0056 43.2007 54.073 42.82 54.2C42.5996 53.1826 42.1537 52.2276 41.515 51.4055C40.8764 50.5834 40.0613 49.9151 39.13 49.45L35 47.38V46.31C36.0397 45.8155 36.9413 45.0722 37.6251 44.146C38.3089 43.2198 38.7536 42.1392 38.92 41H39C39.5501 40.9977 40.089 40.8445 40.558 40.5571C41.027 40.2697 41.4082 39.8591 41.66 39.37C41.9461 39.4301 42.2377 39.4603 42.53 39.46C43.3544 39.4585 44.163 39.2339 44.87 38.81C45.3021 38.5451 45.6845 38.2067 46 37.81C46.4237 38.3265 46.9562 38.7431 47.5595 39.0301C48.1627 39.317 48.8219 39.4673 49.49 39.47C50.0991 39.4658 50.7004 39.3337 51.2551 39.0821C51.8098 38.8306 52.3055 38.4654 52.71 38.01C53.3125 37.323 53.8111 36.5515 54.19 35.72C55.1481 36.234 56.0244 36.8879 56.79 37.66C56.8141 37.6891 56.8409 37.7159 56.87 37.74C58.8703 39.7969 59.9927 42.5508 60 45.42V48Z" fill="#6550a8" id="id_131"></path>
<path d="M44.017 22.25L42.692 23.75C43.6055 24.556 44.7818 25.0007 46 25.0007C47.2182 25.0007 48.3945 24.556 49.308 23.75L47.983 22.25C47.4283 22.7183 46.7259 22.9751 46 22.9751C45.2741 22.9751 44.5716 22.7183 44.017 22.25V22.25Z" fill="#db33ae" id="id_132"></path>
<path d="M42 18C42.2652 18 42.5196 18.1054 42.7071 18.2929C42.8946 18.4804 43 18.7348 43 19H45C45 18.2044 44.6839 17.4413 44.1213 16.8787C43.5587 16.3161 42.7956 16 42 16C41.2043 16 40.4413 16.3161 39.8787 16.8787C39.3161 17.4413 39 18.2044 39 19H41C41 18.7348 41.1054 18.4804 41.2929 18.2929C41.4804 18.1054 41.7348 18 42 18Z" fill="#3D9AE2" id="id_133"></path>
<path d="M50 16C49.2043 16 48.4413 16.3161 47.8787 16.8787C47.3161 17.4413 47 18.2044 47 19H49C49 18.7348 49.1054 18.4804 49.2929 18.2929C49.4804 18.1054 49.7348 18 50 18C50.2652 18 50.5196 18.1054 50.7071 18.2929C50.8946 18.4804 51 18.7348 51 19H53C53 18.2044 52.6839 17.4413 52.1213 16.8787C51.5587 16.3161 50.7956 16 50 16V16Z" fill="#3D9AE2" id="id_134"></path>
<path d="M23 21C23 20.7348 22.8946 20.4804 22.7071 20.2929C22.5196 20.1054 22.2652 20 22 20H14C13.7348 20 13.4804 20.1054 13.2929 20.2929C13.1054 20.4804 13 20.7348 13 21C12.9614 21.6667 13.0642 22.3341 13.3018 22.9582C13.5394 23.5823 13.9064 24.1491 14.3786 24.6214C14.8509 25.0936 15.4177 25.4606 16.0418 25.6982C16.6659 25.9358 17.3333 26.0386 18 26C18.6667 26.0386 19.3341 25.9358 19.9582 25.6982C20.5823 25.4606 21.1491 25.0936 21.6214 24.6214C22.0936 24.1491 22.4606 23.5823 22.6982 22.9582C22.9358 22.3341 23.0386 21.6667 23 21V21ZM15.123 22H20.877C20.7136 22.621 20.3343 23.1635 19.807 23.5301C19.2797 23.8966 18.639 24.0632 18 24C17.361 24.0632 16.7203 23.8966 16.193 23.5301C15.6657 23.1635 15.2864 22.621 15.123 22V22Z" fill="#de31b0" id="id_135"></path>
<path d="M14 16C14.2652 16 14.5196 16.1054 14.7071 16.2929C14.8946 16.4804 15 16.7348 15 17H17C17 16.2044 16.6839 15.4413 16.1213 14.8787C15.5587 14.3161 14.7956 14 14 14C13.2044 14 12.4413 14.3161 11.8787 14.8787C11.3161 15.4413 11 16.2044 11 17H13C13 16.7348 13.1054 16.4804 13.2929 16.2929C13.4804 16.1054 13.7348 16 14 16V16Z" fill="#3D9AE2" id="id_136"></path>
<path d="M22 16C22.2652 16 22.5196 16.1054 22.7071 16.2929C22.8946 16.4804 23 16.7348 23 17H25C25 16.2044 24.6839 15.4413 24.1213 14.8787C23.5587 14.3161 22.7956 14 22 14C21.2044 14 20.4413 14.3161 19.8787 14.8787C19.3161 15.4413 19 16.2044 19 17H21C21 16.7348 21.1054 16.4804 21.2929 16.2929C21.4804 16.1054 21.7348 16 22 16Z" fill="#3D9AE2" id="id_137"></path>
<path d="M29.5 42.33C30.2601 42.7688 31.1223 42.9999 32 42.9999C32.8777 42.9999 33.7399 42.7688 34.5 42.33L33.5 40.6C33.042 40.8575 32.5254 40.9928 32 40.9928C31.4746 40.9928 30.958 40.8575 30.5 40.6L29.5 42.33Z" fill="#db2cac" id="id_138"></path>
<path d="M35 37H33V39H35V37Z" fill="#3D9AE2" id="id_139"></path>
<path d="M31 37H29V39H31V37Z" fill="#3D9AE2" id="id_140"></path>
</svg>