<?xml version="1.0" encoding="UTF-8" standalone="no"?> <svg id="flat" xmlns="http://www.w3.org/2000/svg" viewBox="0 0 340 340"><path d="M156.039,101.189a270.067,270.067,0,0,1,61.293-15.736L206.51,114.147H161.447Z" style="fill:#ad6666"/><path d="M14.2,186.45s-4.127,33.015,8,66.546l131.027,48.49V202.741a21.053,21.053,0,0,1,6.333-15.059c4.429-4.332,11.789-9.966,23.844-15.933l-65-68.093S44.9,107.782,14.2,186.45Z" style="fill:#f9ac5f"/><path d="M153.227,202.741a21.053,21.053,0,0,1,6.333-15.059c4.429-4.332,11.79-9.966,23.844-15.933l-65-68.093S44.9,107.783,14.2,186.45a155.53,155.53,0,0,0,.391,33.133c9.925,5.475,17.279,6.695,22.512,6.188a12.725,12.725,0,0,0,11.3-10.8A67.237,67.237,0,0,1,53.391,198.3c6.675.87,13.349-.871,18.282-10.39S68.65,163.06,68.65,163.06c8.874-21.023,34.944-26.858,34.944-26.858,15.294,11.122,23.447,28.361,27.071,38.134a38.32,38.32,0,0,1,2.378,13.325v45.663a16.509,16.509,0,0,1-19.072,16.311A66.413,66.413,0,0,1,66.5,218.006a2.834,2.834,0,0,0-5.244,1.679,117.2,117.2,0,0,0,1.7,12.934l.591,35.677,89.684,33.19Z" style="fill:#ea7f50"/><path d="M54.44,99.529s-31.8,27.432-44.408,85.549a20.068,20.068,0,0,0,2.779,15.234l4.877,5.3a41.438,41.438,0,0,0,5.552,3.946,8.389,8.389,0,0,1,5.5,2.859q1.038.467,2.146.919a7.118,7.118,0,0,0,9.474-4.482l7.591-24.465,2.626,1.965a8.4,8.4,0,0,0,11.972-1.988h0a8.4,8.4,0,0,0,.339-8.936l-6.436-11.157a10.364,10.364,0,0,1-.486-9.415c3.441-7.7,11.286-22.432,24-31.09Z" style="fill:#ffcac0"/><path d="M123.346,124.934l29.985,27.456s29.247-12.947,24.048-44.132l-43.9-20.109S121.734,96.381,123.346,124.934Z" style="fill:#ffcac0"/><path d="M153.331,152.39a47.759,47.759,0,0,0,12.815-9.178c-19.825-19.153-15.545-38.964-13.059-46.081L133.48,88.149s-11.746,8.232-10.134,36.785Z" style="fill:#ef9292"/><path d="M78.228,130.892h39.1a0,0,0,0,1,0,0v13.055A19.113,19.113,0,0,1,98.219,163.06h-.878a19.113,19.113,0,0,1-19.113-19.113V130.892A0,0,0,0,1,78.228,130.892Z" style="fill:#ad6666"/><path d="M177.379,108.258s1.026,22.634-24.048,44.132c0,0,27.747,26.426,27.747,52.852v94.606s88-11.628,131.338-61.837a181.443,181.443,0,0,0,5.409-35.787l-49.492-73.3-73.021-15.321A92.073,92.073,0,0,1,177.379,108.258Z" style="fill:#6295d3"/><path d="M256.436,115.129l-28.794,1.8a202.655,202.655,0,0,1-32.329-3.325c2.158,12.515,12.053,38.068,57.3,24.651a24.21,24.21,0,0,1,12.62,11.5s-8.537,15.218,3.154,25.981c0,0,7.609,8.351,19.671,2.227a53.638,53.638,0,0,1,8.908,18.557s6.486,12.686,20.855,5.7a169.786,169.786,0,0,0-2.4-40.881S291.848,116.186,256.436,115.129Z" style="fill:#346b99"/><path d="M269.842,206.728a2.679,2.679,0,0,0-5.272-.5c-2.95,11.681-8.78,26.838-20.066,35.706a32.763,32.763,0,0,1-21.725,7.055,24.061,24.061,0,0,1-23.112-24.182V204.947c0-28.927-21.669-50.12-35.506-63.736a81.53,81.53,0,0,1-10.83,11.179s27.748,26.426,27.748,52.852v94.606s57.577-7.613,102.522-37.1l-13.7-38.738A158.509,158.509,0,0,0,269.842,206.728Z" style="fill:#346b99"/><path d="M296.942,106.147a188.908,188.908,0,0,1,31.946,52.185,20.085,20.085,0,0,1,.14,15.087,15.048,15.048,0,0,0-3.887,6.316,42.282,42.282,0,0,1-5.925,5.91,21.307,21.307,0,0,0-5.183,3.785l-.643.419a7.118,7.118,0,0,1-10.12-2.724L291.447,164.4l-2.235,2.4a8.4,8.4,0,0,1-12.135.173h0a8.4,8.4,0,0,1-1.923-8.733l4.349-12.124a10.365,10.365,0,0,0-1.2-9.351c-.548-.8-1.17-1.687-1.864-2.632Z" style="fill:#cc938b"/><path d="M296.935,106.153c-14.721-16.861-26.97-24.1-26.97-24.1l-20.814,28.394c12.442,5.538,21.965,16.43,27.289,23.692C292.625,126.974,296.286,113.941,296.935,106.153Z" style="fill:#ad6666"/><path d="M277.955,87.92h7.232a0,0,0,0,1,0,0v31.471a0,0,0,0,1,0,0h-7.232A14.856,14.856,0,0,1,263.1,104.535v-1.759A14.856,14.856,0,0,1,277.955,87.92Z" transform="translate(548.286 207.311) rotate(-180)" style="fill:#ef9292"/><path d="M215.674,28.721S191.4,25.708,187.54,49.449s16.109,39.4,16.109,39.4L269.9,96.56s14.747-5.9,14.747-26.092c0,0,3.631-46.965-34.486-53.318C250.161,17.15,227.472,11.478,215.674,28.721Z" style="fill:#f9ac5f"/><path d="M217.332,127.192h39.1a0,0,0,0,1,0,0v13.055a19.113,19.113,0,0,1-19.113,19.113h-.878a19.113,19.113,0,0,1-19.113-19.113V127.192a0,0,0,0,1,0,0Z" style="fill:#ef9292"/><path d="M200.684,86.623h7.232a0,0,0,0,1,0,0v31.471a0,0,0,0,1,0,0h-7.232a14.856,14.856,0,0,1-14.856-14.856v-1.759A14.856,14.856,0,0,1,200.684,86.623Z" style="fill:#ef9292"/><path d="M200.927,71.149S207.506,56.4,226.792,50.5c0,0,4.061,12.766,29.688,17.76a8.534,8.534,0,0,1,6.9,7.551A54.019,54.019,0,0,0,269.9,96.56v3.857A34.487,34.487,0,0,1,235.413,134.9h0a34.486,34.486,0,0,1-34.486-34.487Z" style="fill:#ffcac0"/><path d="M235.413,122.106h0a18.081,18.081,0,0,1-18.081-18.081v-4.5h36.162v4.5A18.081,18.081,0,0,1,235.413,122.106Z" style="fill:#fff"/><path d="M269.9,224.014s24.446-4.441,42.516,14c0,0-15.073,81.306-111.258,84.449q-12.156-20.8-10.639-42.627c2.086-.845,4.211-1.816,6.353-2.93l-1.231-6.849a7.228,7.228,0,0,1,4.333-7.95h0a7.227,7.227,0,0,1,8.537,2.3l3.954,5.208a16.234,16.234,0,0,0,14.8,6.318C241.311,274.306,265.75,265.443,269.9,224.014Z" style="fill:#ffcac0"/><path d="M200.652,284.213c-1.447-3.485-6.392-4.3-10.135-4.385a73.775,73.775,0,0,1-30.338,5.568l24.929,36.878c5.59.3,10.929.342,16.049.175C203.642,310.821,202.7,289.142,200.652,284.213Z" style="fill:#ef9292"/><path d="M22.2,253s13.67-15.734,40.752-20.377c0,0,8.445,44,66.081,50.751a7.092,7.092,0,0,0,6.877-3.4l5.382-8.911a6.43,6.43,0,0,1,5.5-3.107h0a6.431,6.431,0,0,1,6.431,6.431v9.431c9.179,2.858,23.707,3.216,32.262,3.142a6.877,6.877,0,0,1,6.943,6.877v1.588c-1.183,1.9-.995,3.917,0,6.008v6.61a6.064,6.064,0,0,0,0,6.079,8.193,8.193,0,0,1-7.324,8.153C156.374,325.342,51.49,330.88,22.2,253Z" style="fill:#cc938b"/><path d="M192.432,301.432v-6.008a163.165,163.165,0,0,1-16.757-.063,3,3,0,0,0-.371,5.988c.268.017,4.536.275,9.857.275C187.468,301.624,189.97,301.57,192.432,301.432Z" style="fill:#ad6666"/><path d="M192.432,314.06v-6.018a112.008,112.008,0,0,1-16.684-.1,3,3,0,0,0-.517,5.978c.285.025,4.824.409,10.188.409C187.7,314.332,190.118,314.255,192.432,314.06Z" style="fill:#ad6666"/><path d="M32.753,190.912a3,3,0,0,0-4.012,1.383c-2.509,5.149-4.578,13.293-5.5,17.261a53.711,53.711,0,0,0,5.506,2.855c.578-2.61,2.789-12.151,5.389-17.488A3,3,0,0,0,32.753,190.912Z" style="fill:#ef9292"/><path d="M21.118,185.163a3,3,0,0,0-3.949,1.551,101.133,101.133,0,0,0-4.351,13.594,19.293,19.293,0,0,0,1.965,2.527,33.259,33.259,0,0,0,2.906,2.773c.842-3.552,2.88-11.68,4.98-16.5A3,3,0,0,0,21.118,185.163Z" style="fill:#ef9292"/><path d="M319.215,185.645c-2.669-8.7-8.567-18.8-8.844-19.268a3,3,0,1,0-5.174,3.038c.069.119,6.88,11.784,8.836,20.015A56.621,56.621,0,0,0,319.215,185.645Z" style="fill:#ad6666"/><path d="M327.372,176.652a19.336,19.336,0,0,0,1.655-3.233A101.663,101.663,0,0,0,320.25,158.7a3,3,0,1,0-4.85,3.534c.075.1,7.1,9.794,9.741,17.5A33.263,33.263,0,0,0,327.372,176.652Z" style="fill:#ad6666"/><circle cx="225.506" cy="82.792" r="3.831" style="fill:#e58585"/><circle cx="245.32" cy="82.792" r="3.831" style="fill:#e58585"/><path d="M79.975,123.766,54.44,99.529s-6.551,5.668-14.881,17.265c6.306,9.791,18.047,10.4,18.047,10.4a27.217,27.217,0,0,0,7.382,11.791A61.015,61.015,0,0,1,79.975,123.766Z" style="fill:#ef9292"/><path d="M138.877,85.453h7.232a0,0,0,0,1,0,0v31.471a0,0,0,0,1,0,0h-7.232a14.856,14.856,0,0,1-14.856-14.856v-1.759A14.856,14.856,0,0,1,138.877,85.453Z" transform="translate(270.131 202.377) rotate(180)" style="fill:#ad6666"/><path d="M61.417,85.453H68.65a0,0,0,0,1,0,0v31.471a0,0,0,0,1,0,0H61.417a14.856,14.856,0,0,1-14.856-14.856v-1.759A14.856,14.856,0,0,1,61.417,85.453Z" style="fill:#ad6666"/><path d="M125.1,26.005c-14.386-9-43.145-9-57.531,0C52.116,35.676,44.986,54.4,49.105,72.162c2,8.62,6.936,16.752,17.981,19.351h58.5c11.045-2.6,15.983-10.731,17.982-19.351C147.685,54.4,140.556,35.676,125.1,26.005Z" style="fill:#3c3c4f"/><path d="M124.336,82.307a10.766,10.766,0,0,1-3.135-8.231l.466-8.121a15.06,15.06,0,0,0-13.41-15.865,111.213,111.213,0,0,0-23.828,0A15.065,15.065,0,0,0,71,65.955l.467,8.122a10.766,10.766,0,0,1-3.136,8.23h0a13.222,13.222,0,0,0-3.873,9.349v18.5c1.161,12,7.093,19.226,13.53,23.571a32.95,32.95,0,0,0,36.688,0c6.437-4.345,12.368-11.573,13.529-23.571v-18.5a13.225,13.225,0,0,0-3.872-9.349Z" style="fill:#cc938b"/><path d="M96.309,123.766h0a18.082,18.082,0,0,1-18.081-18.082v-4.5H114.39v4.5A18.082,18.082,0,0,1,96.309,123.766Z" style="fill:#fff"/><circle cx="86.402" cy="79.418" r="3.831" style="fill:#9b5959"/><circle cx="106.216" cy="79.418" r="3.831" style="fill:#9b5959"/><path d="M269.9,224.014a95.327,95.327,0,0,1-1.851,11.545c8.461,2.266,26.443,8.549,37.274,22.843a94.24,94.24,0,0,0,7.093-20.391C294.346,219.573,269.9,224.014,269.9,224.014Z" style="fill:#ef9292"/><path d="M67.192,244.1a49.982,49.982,0,0,1-4.24-11.485C35.87,237.262,22.2,253,22.2,253a95.56,95.56,0,0,0,12.869,23.661C45.4,258.627,60.873,247.938,67.192,244.1Z" style="fill:#ad6666"/></svg>