<?xml version="1.0" encoding="UTF-8" standalone="no"?> <svg id="icon" xmlns="http://www.w3.org/2000/svg" viewBox="0 0 500 500"><path d="M322.073,490.127h54.432c26.75-3.107,57.731-15.695,89.61-30.293,0,0,9.913-4.214,0-13.915,0,0,12.661-4.132-3.36-15.149l-10.147-84.713s-10.147-26.705-28.3-34.981l-17.146-20.323-45.98,36.368s-22.944,25.879-25.569,40.3S322.073,490.127,322.073,490.127Z" style="fill:#ffdda6"/><path d="M434.622,490.127l31.493-30.293s9.913-4.214,0-13.915c0,0,12.661-4.132-3.36-15.149-2.626-38-8.182-76.123-16.641-99.006,0,0-11.492,11.431-15.894,31.276-7.822,35.264-8.915,73.612-28.832,103.744a71.214,71.214,0,0,1-12.066,13.924,95.7,95.7,0,0,1-12.817,9.419Z" style="fill:#f29f72"/><path d="M92.223,488.158H55.549l-25.265-6.944,1.052-115.975s1.047-21.111,26.765-33.387S88.259,313.8,88.259,313.8,79.632,434.725,92.223,488.158Z" style="fill:#a2d2f9"/><path d="M54.164,411.15c-3.4-14.518-11.241-28.573-22.9-37.51l-.98,114.518H55.549C56.333,464.353,57.411,425.035,54.164,411.15Z" style="fill:#839fdd"/><path d="M159.409,488.158h29.566l28.158-5.282-5.248-94.543s-1.389-44.247-13.069-47.906-53.063-36.6-53.063-36.6,12.1,42.513,12.1,84.5S159.409,488.158,159.409,488.158Z" style="fill:#a2d2f9"/><path d="M211.885,388.333s-.787-25.045-6.151-39.008A118.439,118.439,0,0,0,191.117,389c-1.94,11.184-2.254,22.58-2.465,33.929q-.48,25.744-.294,51.5a129.677,129.677,0,0,0,.617,13.734h28.158Z" style="fill:#839fdd"/><path d="M92.223,485.6h67.186s4.2-106.679-4.2-144.348-68.953-6.21-68.953-6.21S86.423,454.85,92.223,485.6Z" style="fill:#fff"/><path d="M159.96,469.561c-14.4-1.055-28.745-4.379-39.55-13.628-16.46-14.091-20.2-37.812-21.318-59.45a459.936,459.936,0,0,1,.536-56.221l2.249-3.9c2.978-2.079,4.221-5.624,4.047-9.245a138.215,138.215,0,0,0-19.673,8.116s.171,121.686,5.972,152.921h67.186S159.689,480.929,159.96,469.561Z" style="fill:#c4c4d6"/><path d="M202.87,148.97l-15.548-6.339s12.844-4.541,9.8-22.381c0,0-19.938,2.778-31.769-8.376s-44.918-20.279-62,17.575l-.862-.338s-18.03-10.145-32.32,11.492-15.674,43.479,2.239,56.045S93.024,232.93,93.024,232.93s-3.38,38.812,47.994,42.191c0,0,33.461,6.422,30.757-28.39s-2.037-71.315-2.037-71.315S194.758,173.56,202.87,148.97Z" style="fill:#db6170"/><path d="M202.87,148.97l-15.548-6.339s12.844-4.541,9.8-22.381c0,0-18.9,2.628-30.815-7.529a50.044,50.044,0,0,1-3.55,12.183c-8.7,20.36-27.915,35.568-49.462,40.658-17.4,4.111-36.026,1.823-52.382-5.48-4.092,14.553-.988,27.811,11.492,36.566,9.233,6.477,14.419,15.911,17.283,23.538q.987-.549,1.962-1.1c17.484-9.805,36.042-18.851,56.016-20.545a80.306,80.306,0,0,1,22.1,1.219c-.209-14.423-.029-24.347-.029-24.347S194.758,173.56,202.87,148.97Z" style="fill:#af3f54"/><path d="M170.8,259.713a16.746,16.746,0,0,0-2.3-1.905,45.347,45.347,0,0,1-39.987-2.449,36.59,36.59,0,0,1-13.357-12.935,26.838,26.838,0,0,1-3.463-18.084l-.315.229c-3.684-4.416-10.462-5.179-15.868-3.218a23.153,23.153,0,0,0-4.611,2.338,55.668,55.668,0,0,1,2.127,9.241s-3.38,38.812,47.994,42.191C141.018,275.121,165.233,279.763,170.8,259.713Z" style="fill:#af3f54"/><path d="M369.877,253.837s-49.525.613-60.559-41.169-3.129-66.311,31.272-78.8c0,0,14.541-22.744,47.216-20.068s54.974,43.825,54.974,43.825,17.977,41.3-11.08,67.64Z" style="fill:#756a7a"/><path d="M442.78,157.626a114.326,114.326,0,0,0-9.8-14.471c-10.152,20.87-28.965,37.186-50.739,45.291-22.566,8.4-47.992,8.2-70.882.722-2.2-.717-4.392-1.52-6.536-2.435a133.165,133.165,0,0,0,4.491,25.935c11.034,41.782,60.559,41.169,60.559,41.169L431.7,225.266C460.757,198.926,442.78,157.626,442.78,157.626Z" style="fill:#5b5160"/><path d="M90.689,203.611s-4.407-15.181-14.936-11.019-2.938,25.955-2.938,25.955,6.611,13.467,17.874,6.366a20.962,20.962,0,0,0,24,8.57c16.16-4.652,28.4-2.693,28.4-2.693s25.71,7.835,26.445-8.815-.735-45.054-.735-45.054-39.982-.012-54.113-22.281l-7.346,11.753S90.444,191.858,90.689,203.611Z" style="fill:#ffcac0"/><path d="M168.8,176.921s-39.982-.012-54.113-22.281l-7.346,11.753s-11,16.58-15.116,29.158a115.863,115.863,0,0,1,.965,21.329l1,2.583c-.233-8.154,2.461-16.213,6.673-23.2a72.818,72.818,0,0,1,10.712-13.454,10.178,10.178,0,0,1,11.519-2.021c12.03,5.581,24.482,10.56,37.649,10.962a55.984,55.984,0,0,0,8.643-.419C169.116,183.075,168.8,176.921,168.8,176.921Z" style="fill:#f29797"/><path d="M107.749,272.781l29.908,11.555s1.172,10.849,7.916,17.886,9.676,30.787,8.5,34.306-17.3,23.979-17.3,23.979-22.671,3-34.892-5.507c-14.84-10.325-16.14-37.094-12.315-38.356l16.127-27.91Z" style="fill:#ffcac0"/><path d="M149.158,308.163a20.058,20.058,0,0,0-3.585-5.941c-6.744-7.037-7.916-17.886-7.916-17.886l-29.908-11.555L105.7,288.734,103.35,292.8C117.63,300.717,133.16,306.388,149.158,308.163Z" style="fill:#f29797"/><path d="M350.7,157.626s3.044,39.2,43.553,52.825a11.309,11.309,0,0,0,3.943-9.32s12.029,11,11.67,25.177c0,0,6.649-12.632,15.217-7.97a15.887,15.887,0,0,1,8.014,11.027,13.462,13.462,0,0,1-3.873,12.547c-4.6,4.406-12.907,10.239-24.216,9.5a83.1,83.1,0,0,0,2.151,39.34s-.717,38-25.812,47.679-13.264-19-13.264-19,12.315-21.605,8.129-46.651l-16.732-1.605s-21.928,1.347-23.87-30.585C335.609,240.591,320.052,169.329,350.7,157.626Z" style="fill:#ffcac0"/><path d="M405.207,283.06a85.74,85.74,0,0,1-1.43-22.02q-12.632,7.973-25.588,15.413l-1.4.8a73.719,73.719,0,0,1-2.318,25.544Z" style="fill:#f29797"/><path d="M406.309,224.871a5.682,5.682,0,0,0,2.206-.453,3.354,3.354,0,0,0,1.166-1.8c-1.5-12.35-11.486-21.483-11.486-21.483a11.309,11.309,0,0,1-3.943,9.32c-40.509-13.622-43.553-52.825-43.553-52.825a21.815,21.815,0,0,0-6.806,4.169,59.849,59.849,0,0,0,10.186,35.433C363.075,210.588,390.079,228.129,406.309,224.871Z" style="fill:#f29797"/><path d="M434.622,463.754s11.023-5.822,29.131-3.275l2.362,27.947c-8.838,1.835-31.493,1.7-31.493,1.7Z" style="fill:#ffcac0"/><path d="M128.276,188.191a4.179,4.179,0,0,0-3.436-3.492,2.974,2.974,0,0,0-3.224,1.433c-2.51,5.037-2.125,10.9.822,14.922,1.547,2.112,5.408,1.023,5.982-1.579A30.756,30.756,0,0,0,128.276,188.191Z" style="fill:#4c373c"/><path d="M155.206,200.225c1.387-2.55,3.318-14.757-2.259-15.285-5.986-.566-6.553,9.956-3.926,15.142A3.6,3.6,0,0,0,155.206,200.225Z" style="fill:#4c373c"/><path d="M216.822,382.566c-.588-21.075-.662-36.9-18.819-51.148-21.274-14.5-54.451-24.509-57.729-53.782,4.766.23,9.8,1.341,14.333.25,26.275-3.805,23.468-40.116,19.246-59.5q.417-20.143-.066-40.287c15.937,1.351,31.385-14.656,33.584-29.635a3.818,3.818,0,0,0-2.606-4.548c-3.487-1.136-7.055-2.29-10.658-3.229,5.775-5.847,10.211-14.764,7-21.636a4.407,4.407,0,0,0-3.829-3.786c-5.3-.477-10.273-.374-15.477-1.78-12.693-3.374-23.672-11.626-36.832-13.476-16.68-2.332-41.06,7.864-45.49,25.651-6.685-2.657-14.892-.769-21.036,2.679-23.325,13.018-32.654,49.882-10.852,68.287-6.072,13.916,3.186,36.982,21.072,32.441.27,13.069,2.547,26.709,13.88,34.9,2.867,30.308-9.7,39.958-34.164,54.481-5.811,3.353-12.067,6.041-17.753,9.587-17.74,11.1-23.468,28.824-23.47,48.708-1.895,35.8-1.735,71.685-1.144,107.52.059,5.18,8.192,5.194,8.133,0,.263-40.415-.976-81.152,2.948-121.409,4.143-26.485,27-30.292,45.8-43.532-4,54.658-.837,109.63,4.989,164.045.61,5.042,8.382,5.36,8.2,0-2.157-46.247-8.065-92.443-5.889-138.835,12.536,24.187,48.408,31.292,62.533,4.722,2.875,44.632,2.174,90.21,2,134.909-.046,5.332,8.163,5.308,8.343,0,1.1-32.46.876-65.774-.049-98.235-.641-23.8-1.673-47.786-7.8-70.937,14.873,12.765,36.631,17.156,47.318,34.481,4.762,7.956,4.562,17.071,5.117,26.019,1.631,26.466,2.722,52.96,3.892,79.448.431,9.771,1.012,19.55,1.351,29.324.179,5.17,8.313,5.194,8.133,0C219.893,450.358,218.82,416.442,216.822,382.566Zm-69.715-176.45c-2.493-3.715-8.408-.393-6.092,3.528,1.714,2.9,3.314,6.325,1.017,9.373-1.864,2.473-4.578,2.408-7.145,3.564a22.087,22.087,0,0,1-4.269,1.068c-5.549.836-17.756,8.866-27.4,1.371-8.843-6.874-5.909-22.332-4.092-32.507,4.216-11.47,14.509-20.824,15.6-33.371a75.767,75.767,0,0,0,50.388,19.231q.477,20.714-.009,41.428-.191.677-.425,1.329c-3.369,6.046-11,5.5-17.229,4.1C152.459,219.556,151.181,211.9,147.107,206.116ZM66.012,153.328c7.233-14.894,18.672-24.1,35.922-21.046a3,3,0,0,0,3.458-1.659c2.417-4.315,4.061-8.568,7.692-12.122,32.839-27.691,50.711,6.107,81.839,4.877-.585,7.086-6.43,12.031-11.4,16.341-2.553,2.31-.407,5.836,2.394,6.1,4.215,1.526,8.572,2.76,12.894,4.032-10.685,29.209-50.77,24.171-71.948,9.544-5.006-3.37-8.936-8.437-14.076-11.461a3.518,3.518,0,0,0-4.881,3.724c1.579,16.676-15.248,26.828-18.153,42.74-3.247-6.226-12.642-9.357-17.8-4.241C62.524,180.019,59.873,166.554,66.012,153.328Zm14.1,66.978c-4.421-2.8-5.985-8.589-6.093-13.464-.086-3.832,1.1-13.276,7.031-10.649,3.764,1.667,4.932,6.247,6.43,10.043.073,4.611.552,9.27.776,13.855C85.687,221.445,83.259,222.3,80.115,220.306Zm16.112,12.405c10.17,8.989,22.643,2.462,33.723-.553,12.321-2.787,25.706,7.877,37.118-.451,2.217,13.086,1.885,34.852-14.431,37.859C128.425,269.659,97.125,261.475,96.227,232.711ZM128.16,357.686c-19.435,3.289-37.189-15.68-35.956-34.251a34.635,34.635,0,0,1,2.8-9.668,44.849,44.849,0,0,1,6.061-10.583,40.8,40.8,0,0,0,8.6-24.112c8.193,4.253,17.155,7.455,25.794,10.637a41.64,41.64,0,0,0,5.763,11.163,68.572,68.572,0,0,1,8.112,22.82C150.765,337.288,143.358,355.272,128.16,357.686Z" style="fill:#4c373c"/><path d="M58.639,399.989c-.41-5.857.6-12.67-1.716-18.24-1.393-3.353-6.1-2.907-6.446.857,2.412,33.817.644,67.878.317,101.807-.081,5,7.756,4.988,7.9,0C59.409,456.286,60.312,428.1,58.639,399.989Z" style="fill:#4c373c"/><path d="M190.618,374.964c-2.92,5.747-3.785,13.441-4.519,19.764-1.056,9.1-1.451,18.265-1.7,27.422-.542,21.614-.547,40.406.545,62,.244,5.332,8.566,5.362,8.321,0-1.189-36.456-2.362-70.63,2.986-106.809C196.812,374.142,192.317,371.619,190.618,374.964Z" style="fill:#4c373c"/><path d="M349.552,220.4a11.841,11.841,0,0,0,.855-4.327c.767-3.1-.092-6.687-1.226-9.531-1.062-2.662-5.332-4.129-6.864-.9a17.358,17.358,0,0,0,.289,15.663C344.226,224.474,348.489,223.218,349.552,220.4Z" style="fill:#4c373c"/><path d="M370.554,220.592a11.849,11.849,0,0,0,.855-4.327c.767-3.1-.092-6.688-1.226-9.531-1.062-2.663-5.332-4.129-6.865-.9a17.361,17.361,0,0,0,.29,15.663C365.228,224.668,369.491,223.412,370.554,220.592Z" style="fill:#4c373c"/><path d="M370.076,234.812c-5.9,7.045-12.141,6.591-19.612,2.321-2.333-1.078-5.536,1.281-3.848,3.849,6.617,10.066,23.073,7.434,29.055-1.853C377.863,235.726,372.859,231.886,370.076,234.812Z" style="fill:#4c373c"/><path d="M471.247,445.514c5.723-5.023,2.95-14.674-4.439-16.336-1.416-15.825-3.2-31.624-5.181-47.391-1.822-14.375-2.381-30.28-8.185-43.719-5.306-12.287-15.664-21.037-25.344-29.834-7.33-6.681-14.683-13.909-18.784-23.095a117.233,117.233,0,0,1-.574-29.01c14.6.934,28.719-11.608,28.612-26.569,24.892-26.1,17.17-74.156-7.344-98.09-25.042-24.765-63.046-30.4-88.117-2.542-5.829-1.779-13.224,1.431-17.644,4.719-22.816,19.361-28.638,55.763-17.629,82.87,5.259,14.564,17.815,23.576,26.664,35.736,4.936,19.079,22.3,23.8,40.08,23.749-.462,6.727-.572,13.364-1.864,20.08-9.166,27.3-34.325,46.249-40.521,75.194-8.484,37.462-11.9,76.691-12.152,115.037-.033,5.162,7.923,5.16,8.016,0,.988-38.668,3.917-77.712,12.653-115.474,3.762-15.136,12.722-27.334,21.466-39.937-1.569,7.2,4.046,13.951,11.22,14.534,19.613.981,37.89-25.741,39.063-43.653,9.886,12.432,24.245,20.657,32.388,34.487,7.67,13.15,7.884,30.757,9.743,45.517q2.955,23.475,5.121,47.039a12.56,12.56,0,0,0-5.264,2.289c-2.647,2.1.339,5.567,2.97,5.1,2.742-.484,7.726-1.827,10.125.232,3.021,2.592-1.218,4.415-2.709,5.941a2.917,2.917,0,0,0-.814,1.6,3.312,3.312,0,0,0,1.545,4.952c2.258.622,4.135,3.445,2.359,5.456-4.224,3.461-10.327,2.722-15.415,3.131a67.641,67.641,0,0,0-13.9,2.494q-.195-3.948-.414-7.9c6.421-2.006,13.024-2.19,19.541-3.544,2.331-.587,2.45-4.321,0-4.837-6.688-1.275-13.377.3-19.907,1.983-1.215-18.46-1.951-36.917-3.305-55.359-.826-10.548-2.773-21.129,1.05-31.306,1.224-3.258-3.923-5.328-5.569-2.347-4.629,8.378-3.42,18.528-3.278,27.748,1.231,34.11,2.152,68.334,4.934,102.352.458,4.894,7.818,5.1,7.782,0-.045-6.341-.231-12.688-.487-19.034a69.9,69.9,0,0,1,23.274-3.327c0,7.231.071,14.467,1.573,21.543.864,4.068,6.4,2.691,6.768-.916.736-7.723.1-15.562-.369-23.309.053-.04.106-.083.16-.124C475.688,458.52,475.777,449.865,471.247,445.514ZM429.126,230.206c-.718,10.31-9.632,17.311-19.261,17.539.85-5.924,2.588-11.712,3.423-17.636a16.323,16.323,0,0,1,5.217-6.053C424.121,220.524,429.586,223.594,429.126,230.206ZM316.661,218.338c-12.567-23.525-8.244-55.117,9.5-74.886a21.508,21.508,0,0,1,16.759-6.675,3.716,3.716,0,0,0,2.625-1c11.595-10.242,22.874-18.707,39.162-17.748,31.447,2.434,56.8,30.063,59.22,61.092,1.777,14.4-.2,29.689-9.179,41.325-4.745-7.552-16.2-7.571-22.527-1.213-.018-.046-.042-.087-.063-.131-1.1-8.82-4.518-16.992-10.853-22.165a3.121,3.121,0,0,0-2.013-1.471,2.414,2.414,0,0,0-3.219.476c-3.4,2.145-1.1,7.458-2.382,11.248-5.4-.93-12.19-6.508-15.746-9.471-10.524-8.7-17.895-20.664-22.449-33.433-1.063-2.96-2-5.954-2.86-8.979-.9-3.181-1.3-6.8-3.322-9.469a2.428,2.428,0,0,0-4.369.571c-.927,2.846-.463,6.122.247,9.229-19.275,16.121-18.016,55.746-15.457,78.892C324.974,229.488,320,224.608,316.661,218.338Zm48.315,49.1c-21.342-1.384-25.027-14.151-27.521-32.732-2.528-19.959-4.712-55.914,9.626-71.743,3.877,13.153,10.5,25.6,20.069,35.5,5.541,5.93,31.327,27.026,33.969,10.242C403.832,215.115,404.473,222,404,229c-3.079,12.141-4.556,25.607-14.483,33.913C382.749,268.575,373.256,268.264,364.976,267.443Zm21.067,63.408c-3.364,2.822-10.27,8.349-14.9,5.681-4.542-2.62.372-11,1.636-14.515a150.889,150.889,0,0,0,8.3-34c6.564-4.937,13-10.224,19.852-14.782.011.591.022,1.182.041,1.774-1.021,6.21,1.393,12.609,2.253,18.784C403.094,307.661,396.937,321.894,386.043,330.851Z" style="fill:#4c373c"/><path d="M304.176,31.184c-5.1-9.582-18.4-17.129-18.4-17.129-13.15-2.6-27.732,4.124-35.549,18.447a1.72,1.72,0,0,1-3.019,0c-7.1-12.963-21.008-21.145-35.19-18.616-19.641,3.641-29.81,27.285-25.328,45.949,1.981,11.652,11.882,23.73,23.237,34.03,0,0,30.184,17.706,36.628,20.981a5.2,5.2,0,0,0,4.994,0C274.016,102.05,325.718,72.913,304.176,31.184Z" style="fill:#ff668b"/><path d="M285.778,14.057s11.549,9.149,13.886,26.846c3.7,28.027-28.4,48.916-38.749,56.584-18.483,13.7-36.609,3.591-50.984-3.624,13.844,12.558,29.849,22.473,36.293,25.748a5.191,5.191,0,0,0,4.993,0c22.465-12.8,77.306-47.2,55.763-88.932C301.885,21.1,294.12,15.7,285.778,14.057Z" style="fill:#c6305f"/><path d="M221.48,28.156c-3.657-1.493-8-.511-11.207,1.794a22.6,22.6,0,0,0-7.023,9.371c-2.8,6.274-4.457,17.954.883,19.988a5.191,5.191,0,0,0,5.208-.746,12.646,12.646,0,0,0,2.645-4.3,26.075,26.075,0,0,1,7.093-8.934c2.792-2.251,6.256-4.191,7.355-7.605C227.644,33.966,225.136,29.65,221.48,28.156Z" style="fill:#ffeef3"/><path d="M248.7,124.252a9.146,9.146,0,0,1-4.342-1.1c-7.429-3.785-23.371-13.871-37.048-26.263l-.072-.063C192.93,83.844,184.7,71.669,182.773,60.638a46.81,46.81,0,0,1,6.22-35.122c5.441-8.379,13.361-13.907,22.3-15.564,14.184-2.525,28.78,4.363,37.427,17.322C257.46,14.127,272.23,7.3,286.553,10.13c.048.009.1.02.143.031,10.047,2.03,18.5,8.645,23.816,18.641l.022.043c11.207,21.709,10.359,55.682-57.337,94.242A9.337,9.337,0,0,1,248.7,124.252Zm-36.15-33.408c.023.019.046.04.068.06,13.047,11.833,28.646,21.7,35.414,25.141l.11.058a1.193,1.193,0,0,0,1.15,0C283.551,96.59,320.8,66.22,303.437,32.536c-4.189-7.863-10.732-13.032-18.427-14.554-.041-.008-.082-.016-.123-.026-12.006-2.315-24.5,4.293-31.147,16.462a5.709,5.709,0,0,1-5.019,2.98h0a5.714,5.714,0,0,1-5.024-2.987C237.1,22.366,224.653,15.7,212.723,17.823c-8.636,1.6-14.026,7.437-17.021,12.049a38.547,38.547,0,0,0-5.12,29.028c.021.087.039.175.054.263C192.186,68.275,199.764,79.229,212.554,90.844Zm34.165-60.259,0,.007Zm3.993-.018.008.013Z" style="fill:#4c373c"/></svg>