<?xml version="1.0" encoding="UTF-8" standalone="no"?> <svg width="48" height="48" viewBox="0 0 48 48" fill="none" xmlns="http://www.w3.org/2000/svg">
<path d="M30.771 45C28.9697 45.0036 27.2112 44.4507 25.736 43.417C25.2261 43.0635 24.6204 42.8741 24 42.8741C23.3796 42.8741 22.7739 43.0635 22.264 43.417C20.7888 44.4507 19.0303 45.0036 17.229 45C17.036 45 16.84 44.994 16.643 44.981C14.4931 44.8189 12.4752 43.8819 10.9641 42.3442C9.453 40.8064 8.55147 38.7724 8.427 36.62C8.34191 34.8912 8.76789 33.1757 9.65176 31.6875C10.5356 30.1993 11.8382 29.0045 13.397 28.252C13.8985 28.0128 14.332 27.6519 14.6581 27.2021C14.9843 26.7523 15.1925 26.228 15.264 25.677C15.4187 24.4562 15.8286 23.2816 16.4671 22.2296C17.1056 21.1776 17.9584 20.2718 18.97 19.571C20.4467 18.5449 22.2018 17.995 24 17.995C25.7982 17.995 27.5533 18.5449 29.03 19.571C30.0416 20.2718 30.8944 21.1776 31.5329 22.2296C32.1714 23.2816 32.5813 24.4562 32.736 25.677C32.8072 26.2276 33.0151 26.7517 33.3407 27.2015C33.6662 27.6512 34.0992 28.0124 34.6 28.252C36.159 29.0042 37.4619 30.199 38.346 31.6872C39.2301 33.1754 39.6561 34.8911 39.571 36.62C39.4465 38.7725 38.5448 40.8067 37.0335 42.3445C35.5222 43.8823 33.504 44.8191 31.354 44.981C31.1593 44.9937 30.965 45 30.771 45Z" fill="#E67244"/>
<path d="M31 39C27.3282 38.9992 23.7209 38.0345 20.5389 36.2022C17.3569 34.3699 14.7118 31.7343 12.868 28.559C11.4552 29.3611 10.2923 30.5389 9.50834 31.9619C8.7244 33.3849 8.35011 34.9972 8.427 36.62C8.55147 38.7724 9.453 40.8064 10.9641 42.3441C12.4752 43.8819 14.4931 44.8189 16.643 44.981C16.843 44.994 17.036 45 17.229 45C19.0303 45.0035 20.7888 44.4507 22.264 43.417C22.7739 43.0635 23.3796 42.8741 24 42.8741C24.6204 42.8741 25.2261 43.0635 25.736 43.417C27.2112 44.4507 28.9697 45.0035 30.771 45C30.965 45 31.16 44.9937 31.356 44.981C33.4082 44.8237 35.3426 43.9609 36.8306 42.539C38.3187 41.1171 39.2686 39.2239 39.519 37.181C36.8386 38.3789 33.9359 38.9987 31 39V39Z" fill="#C6512B"/>
<path d="M40.032 25.178C39.6606 25.1776 39.2908 25.1289 38.932 25.033C38.3146 24.8634 37.7413 24.5619 37.2517 24.1493C36.762 23.7367 36.3678 23.2228 36.096 22.643C35.5191 21.4413 35.3983 20.0711 35.756 18.787C36.0068 17.6949 36.6092 16.7154 37.4709 15.9991C38.3325 15.2827 39.4055 14.8692 40.525 14.822C40.8964 14.8224 41.2662 14.8712 41.625 14.967C42.8708 15.3789 43.9035 16.2662 44.4981 17.4359C45.0928 18.6055 45.2013 19.9627 44.8 21.212C44.5494 22.3044 43.9468 23.2843 43.085 24.0008C42.2232 24.7174 41.1498 25.131 40.03 25.178H40.032Z" fill="#E67244"/>
<path d="M41.532 23.678C41.1606 23.6776 40.7908 23.6289 40.432 23.533C39.8146 23.3634 39.2413 23.0619 38.7517 22.6493C38.262 22.2367 37.8678 21.7228 37.596 21.143C37.0191 19.9413 36.8983 18.5711 37.256 17.287C37.4168 16.6898 37.6731 16.1224 38.015 15.607C36.9112 16.3604 36.1118 17.4824 35.7601 18.7717C35.4085 20.061 35.5275 21.4335 36.096 22.643C36.3678 23.2228 36.762 23.7367 37.2517 24.1493C37.7413 24.5619 38.3146 24.8634 38.932 25.033C39.2908 25.1289 39.6606 25.1776 40.032 25.178C40.8375 25.1589 41.6256 24.9401 42.3256 24.5413C43.0257 24.1425 43.6158 23.5761 44.043 22.893C43.3013 23.3956 42.4279 23.6686 41.532 23.678Z" fill="#C6512B"/>
<path d="M31.145 15.949C30.8694 15.949 30.5944 15.9249 30.323 15.877C27.337 15.351 25.413 12.05 26.036 8.52C26.6 5.321 29.007 3 31.759 3C32.0346 2.99996 32.3096 3.02406 32.581 3.072C35.567 3.599 37.491 6.899 36.868 10.429C36.305 13.629 33.897 15.949 31.145 15.949V15.949Z" fill="#E67244"/>
<path d="M32.645 14.449C32.3694 14.449 32.0944 14.4249 31.823 14.377C28.837 13.851 26.913 10.55 27.536 7.02C27.7257 5.92126 28.1593 4.87903 28.805 3.97C27.3185 5.06254 26.3234 6.69771 26.036 8.52C25.413 12.05 27.336 15.351 30.323 15.877C30.5944 15.9249 30.8694 15.949 31.145 15.949C32.0309 15.9237 32.8977 15.6862 33.6728 15.2564C34.4478 14.8266 35.1084 14.2171 35.599 13.479C34.7383 14.1 33.7063 14.4389 32.645 14.449V14.449Z" fill="#C6512B"/>
<path d="M16.855 15.949C14.103 15.949 11.695 13.628 11.132 10.429C10.509 6.899 12.432 3.599 15.419 3.072C15.6904 3.02406 15.9654 2.99996 16.241 3C18.993 3 21.4 5.321 21.964 8.52C22.587 12.05 20.664 15.351 17.677 15.877C17.4056 15.9249 17.1306 15.949 16.855 15.949V15.949Z" fill="#E67244"/>
<path d="M19.177 14.377C18.9056 14.4249 18.6306 14.449 18.355 14.449C15.603 14.449 13.195 12.128 12.632 8.92899C12.293 7.15067 12.6533 5.31013 13.638 3.79099C12.6259 4.539 11.8511 5.56317 11.4066 6.7406C10.9621 7.91804 10.8667 9.19872 11.132 10.429C11.695 13.629 14.103 15.949 16.855 15.949C17.1306 15.949 17.4056 15.9249 17.677 15.877C18.3459 15.7491 18.9817 15.4865 19.5458 15.105C20.1098 14.7235 20.5903 14.2312 20.958 13.658C20.4202 14.0177 19.8138 14.2625 19.177 14.377Z" fill="#C6512B"/>
<path d="M7.968 25.178C6.84853 25.1305 5.77563 24.7168 4.9142 24.0002C4.05278 23.2837 3.45052 22.3041 3.2 21.212C2.79877 19.9626 2.90741 18.6053 3.50226 17.4356C4.09712 16.2659 5.13001 15.3787 6.376 14.967C6.73483 14.8712 7.1046 14.8224 7.476 14.822C8.59564 14.8692 9.66878 15.2829 10.5304 15.9995C11.392 16.716 11.9944 17.6957 12.245 18.788C12.6024 20.0717 12.4816 21.4416 11.905 22.643C11.6332 23.2228 11.239 23.7367 10.7493 24.1493C10.2597 24.5619 9.68643 24.8634 9.069 25.033C8.70985 25.1289 8.33974 25.1777 7.968 25.178V25.178Z" fill="#E67244"/>
<path d="M10.571 23.533C10.2122 23.6288 9.8424 23.6776 9.471 23.678C8.35101 23.6312 7.27742 23.2177 6.41539 22.5011C5.55336 21.7845 4.95066 20.8046 4.7 19.712C4.50311 18.9973 4.45477 18.2499 4.55797 17.5159C4.66116 16.7818 4.9137 16.0767 5.3 15.444C4.37547 16.0511 3.67164 16.9404 3.29326 17.9797C2.91488 19.019 2.88217 20.1526 3.2 21.212C3.45061 22.3044 4.05317 23.2843 4.91499 24.0008C5.77682 24.7174 6.85018 25.131 7.97 25.178C8.3414 25.1776 8.71117 25.1288 9.07 25.033C10.1518 24.7305 11.0755 24.0228 11.649 23.057C11.3134 23.2647 10.9506 23.4248 10.571 23.533V23.533Z" fill="#C6512B"/>
</svg>
